<mxfile version="13.6.2" type="github" host="app.diagrams.net" modified="2020-08-18T09:47:08.714Z" agent="5.0 (Windows NT 10.0; Win64; x64) AppleWebKit/537.36 (KHTML, like Gecko) Chrome/70.0.3538.102 Safari/537.36 Edge/18.18363" etag="5eEoxvV2vDdzWx9rSC-1">
  <diagram id="A4O5Xkz_miSPbTQl-K55" name="Page-1">
    <mxGraphModel grid="1" dx="922" dy="623" gridSize="10" guides="1" tooltips="1" connect="1" arrows="1" fold="1" page="1" pageScale="1" pageWidth="827" pageHeight="1169" math="0" shadow="0">
      <root>
        <mxCell id="0" />
        <mxCell id="1" parent="0" />
        <mxCell id="8GEaCidI0vIpf34138di-1" value="&lt;font style=&quot;font-size: 14px&quot;&gt;输入数据&lt;/font&gt;" parent="1" style="rounded=1;whiteSpace=wrap;html=1;" vertex="1">
          <mxGeometry as="geometry" x="28" y="200" width="100" height="50" />
        </mxCell>
        <mxCell id="8GEaCidI0vIpf34138di-2" value="&lt;font style=&quot;font-size: 14px&quot;&gt;预处理&lt;/font&gt;" parent="1" style="rounded=1;whiteSpace=wrap;html=1;" vertex="1">
          <mxGeometry as="geometry" x="170" y="200" width="100" height="50" />
        </mxCell>
        <mxCell id="8GEaCidI0vIpf34138di-3" value="&lt;font style=&quot;font-size: 14px&quot;&gt;模型训练&lt;/font&gt;" parent="1" style="rounded=1;whiteSpace=wrap;html=1;" vertex="1">
          <mxGeometry as="geometry" x="314" y="200" width="100" height="50" />
        </mxCell>
        <mxCell id="8GEaCidI0vIpf34138di-4" value="&lt;font style=&quot;font-size: 14px&quot;&gt;模型验证&lt;/font&gt;" parent="1" style="rounded=1;whiteSpace=wrap;html=1;" vertex="1">
          <mxGeometry as="geometry" x="457" y="200" width="100" height="50" />
        </mxCell>
        <mxCell id="8GEaCidI0vIpf34138di-5" value="" parent="1" style="shape=flexArrow;endArrow=classic;html=1;" edge="1">
          <mxGeometry as="geometry" width="50" height="50" relative="1">
            <mxPoint as="sourcePoint" x="130" y="224.5" />
            <mxPoint as="targetPoint" x="170" y="224.5" />
          </mxGeometry>
        </mxCell>
        <mxCell id="8GEaCidI0vIpf34138di-6" value="" parent="1" style="shape=flexArrow;endArrow=classic;html=1;" edge="1">
          <mxGeometry as="geometry" width="50" height="50" relative="1">
            <mxPoint as="sourcePoint" x="272" y="224" />
            <mxPoint as="targetPoint" x="312" y="224" />
          </mxGeometry>
        </mxCell>
        <mxCell id="8GEaCidI0vIpf34138di-7" value="" parent="1" style="shape=flexArrow;endArrow=classic;html=1;" edge="1">
          <mxGeometry as="geometry" width="50" height="50" relative="1">
            <mxPoint as="sourcePoint" x="416" y="223" />
            <mxPoint as="targetPoint" x="456" y="223" />
          </mxGeometry>
        </mxCell>
        <mxCell id="8GEaCidI0vIpf34138di-9" value="&lt;font style=&quot;font-size: 14px&quot;&gt;输入数据&lt;/font&gt;" parent="1" style="rounded=1;whiteSpace=wrap;html=1;" vertex="1">
          <mxGeometry as="geometry" x="110" y="320" width="100" height="50" />
        </mxCell>
        <mxCell id="8GEaCidI0vIpf34138di-10" value="xgboost" parent="1" style="rhombus;whiteSpace=wrap;html=1;" vertex="1">
          <mxGeometry as="geometry" x="70" y="400" width="180" height="50" />
        </mxCell>
        <mxCell id="8GEaCidI0vIpf34138di-11" value="" parent="1" style="endArrow=classic;html=1;exitX=0.5;exitY=1;exitDx=0;exitDy=0;entryX=0.5;entryY=0;entryDx=0;entryDy=0;" edge="1" source="8GEaCidI0vIpf34138di-9" target="8GEaCidI0vIpf34138di-10">
          <mxGeometry as="geometry" width="50" height="50" relative="1">
            <mxPoint as="sourcePoint" x="390" y="440" />
            <mxPoint as="targetPoint" x="440" y="390" />
          </mxGeometry>
        </mxCell>
        <mxCell id="8GEaCidI0vIpf34138di-12" value="" parent="1" style="endArrow=classic;html=1;" edge="1">
          <mxGeometry as="geometry" width="50" height="50" relative="1">
            <mxPoint as="sourcePoint" x="160" y="453" />
            <mxPoint as="targetPoint" x="160" y="480" />
          </mxGeometry>
        </mxCell>
        <mxCell id="8GEaCidI0vIpf34138di-13" value="诈骗订单的概率" parent="1" style="rounded=1;whiteSpace=wrap;html=1;" vertex="1">
          <mxGeometry as="geometry" x="110" y="480" width="100" height="50" />
        </mxCell>
        <mxCell id="8GEaCidI0vIpf34138di-15" value="" parent="1" style="endArrow=classic;html=1;" edge="1">
          <mxGeometry as="geometry" width="50" height="50" relative="1">
            <mxPoint as="sourcePoint" x="520" y="502" />
            <mxPoint as="targetPoint" x="520" y="472" />
          </mxGeometry>
        </mxCell>
        <mxCell id="8GEaCidI0vIpf34138di-19" value="" parent="1" style="edgeStyle=orthogonalEdgeStyle;rounded=0;orthogonalLoop=1;jettySize=auto;html=1;" edge="1" source="8GEaCidI0vIpf34138di-16" target="8GEaCidI0vIpf34138di-18">
          <mxGeometry as="geometry" relative="1">
            <Array as="points">
              <mxPoint x="520" y="490" />
              <mxPoint x="520" y="490" />
            </Array>
          </mxGeometry>
        </mxCell>
        <mxCell id="8GEaCidI0vIpf34138di-16" value="&lt;font style=&quot;font-size: 14px&quot;&gt;订单特征&lt;/font&gt;" parent="1" style="text;html=1;strokeColor=none;fillColor=none;align=center;verticalAlign=middle;whiteSpace=wrap;rounded=0;" vertex="1">
          <mxGeometry as="geometry" x="480" y="506" width="80" height="24" />
        </mxCell>
        <mxCell id="8GEaCidI0vIpf34138di-18" value="&lt;font style=&quot;font-size: 14px&quot;&gt;xgboost&lt;/font&gt;" parent="1" style="rounded=0;whiteSpace=wrap;html=1;" vertex="1">
          <mxGeometry as="geometry" x="480" y="440" width="80" height="30" />
        </mxCell>
        <mxCell id="8GEaCidI0vIpf34138di-20" value="" parent="1" style="edgeStyle=orthogonalEdgeStyle;rounded=0;orthogonalLoop=1;jettySize=auto;html=1;" edge="1">
          <mxGeometry as="geometry" relative="1">
            <mxPoint as="sourcePoint" x="521" y="438" />
            <mxPoint as="targetPoint" x="521" y="402" />
          </mxGeometry>
        </mxCell>
        <mxCell id="8GEaCidI0vIpf34138di-22" value="&lt;p&gt;&lt;font style=&quot;font-size: 14px&quot;&gt;logistic&lt;/font&gt;&lt;/p&gt;" parent="1" style="rounded=0;whiteSpace=wrap;html=1;" vertex="1">
          <mxGeometry as="geometry" x="480" y="370" width="80" height="30" />
        </mxCell>
        <mxCell id="8GEaCidI0vIpf34138di-23" value="" parent="1" style="edgeStyle=orthogonalEdgeStyle;rounded=0;orthogonalLoop=1;jettySize=auto;html=1;" edge="1">
          <mxGeometry as="geometry" relative="1">
            <mxPoint as="sourcePoint" x="520" y="372" />
            <mxPoint as="targetPoint" x="520" y="336" />
          </mxGeometry>
        </mxCell>
        <mxCell id="8GEaCidI0vIpf34138di-25" value="&lt;font style=&quot;font-size: 14px&quot;&gt;概率&lt;/font&gt;" parent="1" style="text;html=1;strokeColor=none;fillColor=none;align=center;verticalAlign=middle;whiteSpace=wrap;rounded=0;" vertex="1">
          <mxGeometry as="geometry" x="480" y="310" width="80" height="24" />
        </mxCell>
      </root>
    </mxGraphModel>
  </diagram>
</mxfile>
